<svg width="84" height="84" viewBox="0 0 84 84" fill="none" xmlns="http://www.w3.org/2000/svg">
<path d="M39.9018 27.4998L44.4988 13.493L44.5175 13.4362L44.5327 13.3783C45.3767 10.1711 42.9577 7 39.6261 7H21.1763C18.6393 7 16.4835 8.87913 16.1448 11.3985L16.1445 11.4006L12.0445 42.1503L12.0442 42.153C11.6432 45.1922 14.0061 47.8996 17.0763 47.8996H29.7551L24.432 70.3584L24.4319 70.3587C23.6695 73.5776 26.128 76.5993 29.3634 76.5993C31.1367 76.5993 32.8297 75.6694 33.7592 74.0639L56.3045 35.122C56.3052 35.1207 56.3059 35.1195 56.3066 35.1183C58.2749 31.7471 55.8379 27.4998 51.9259 27.4998H39.9018Z" fill="#FDE14E" stroke="white" stroke-width="4"/>
</svg>
