<svg width="1288" height="355" viewBox="0 0 1288 355" fill="none" xmlns="http://www.w3.org/2000/svg">
<path d="M280.012 287.4H103.754C53.5969 287.4 70.3946 252.858 77.4922 246.47C84.5898 240.083 103.577 228.303 125.52 236.534C136.179 207.494 156.986 192.765 178.042 191.109C199.099 189.453 233.447 206.819 248.546 236.534C274.807 236.534 280.012 246.47 280.012 261.139C304.617 261.139 303.367 283.709 280.012 287.4Z" fill="#D4DFEC"/>
<path d="M530.012 127.4H353.754C303.597 127.4 320.395 92.8583 327.492 86.4704C334.59 80.0825 353.577 68.3026 375.52 76.5336C386.179 47.4944 406.986 32.7649 428.042 31.1087C449.099 29.4525 483.447 46.8195 498.546 76.5336C524.807 76.5336 530.012 86.4703 530.012 101.139C554.617 101.139 553.367 123.709 530.012 127.4Z" fill="#D4DFEC"/>
<path d="M1163.01 287.4H986.754C936.597 287.4 953.395 252.858 960.492 246.47C967.59 240.083 986.577 228.303 1008.52 236.534C1019.18 207.494 1039.99 192.765 1061.04 191.109C1082.1 189.453 1116.45 206.819 1131.55 236.534C1157.81 236.534 1163.01 246.47 1163.01 261.139C1187.62 261.139 1186.37 283.709 1163.01 287.4Z" fill="#D4DFEC"/>
</svg>
