<svg width="324" height="444" viewBox="0 0 324 444" fill="none" xmlns="http://www.w3.org/2000/svg">
<g clip-path="url(#clip0_423_210)">
<path d="M34.5833 42.4919C35.0602 38.5131 36.7291 31.9863 36.9492 22.7334" stroke="#03020B" stroke-opacity="0.84" stroke-width="2" stroke-linecap="round"/>
<path d="M112.393 42.4795C108.786 42.0117 102.896 40.2703 94.4775 40.1592" stroke="#03020B" stroke-opacity="0.84" stroke-width="2" stroke-linecap="round"/>
<path d="M169.162 49.0601C172.781 49.4354 178.709 51.0253 187.132 50.9215" stroke="#03020B" stroke-opacity="0.84" stroke-width="2" stroke-linecap="round"/>
<path d="M66.0531 25.7992C65.6393 29.785 64.0737 36.3401 64.0006 45.5922" stroke="#03020B" stroke-opacity="0.84" stroke-width="2" stroke-linecap="round"/>
<path d="M48.6612 45.533C49.2447 35.2694 49.9378 33.4495 51.1945 24.3827" stroke="#03020B" stroke-opacity="0.84" stroke-width="2" stroke-linecap="round"/>
<path d="M117.269 44.0653C126.616 44.1133 128.28 44.7693 136.546 45.6258" stroke="#03020B" stroke-opacity="0.84" stroke-width="2" stroke-linecap="round"/>
<path d="M164.252 47.5999C154.901 47.7903 153.223 47.1773 144.936 46.5324" stroke="#03020B" stroke-opacity="0.84" stroke-width="2" stroke-linecap="round"/>
<path d="M80.2867 27.4472C79.8662 37.7164 79.2018 39.5485 78.0889 48.6345" stroke="#03020B" stroke-opacity="0.84" stroke-width="2" stroke-linecap="round"/>
<path d="M70.8872 40.1498L63.1538 47.263C61.8522 44.2932 60.6232 42.6218 58.1024 39.637" stroke="#03020B" stroke-opacity="0.84" stroke-width="2" stroke-linecap="round" stroke-linejoin="round"/>
<path d="M29.4448 28.4319L37.316 21.5913C38.5484 24.4944 39.7371 26.1334 42.1853 29.0638" stroke="#03020B" stroke-opacity="0.84" stroke-width="2" stroke-linecap="round" stroke-linejoin="round"/>
<path d="M99.4138 47.8977L93.4339 39.3458C96.1162 37.9508 97.6461 36.6214 100.392 33.89" stroke="#03020B" stroke-opacity="0.84" stroke-width="2" stroke-linecap="round" stroke-linejoin="round"/>
<path d="M182.031 43.3152L188.193 51.7077C185.539 53.17 184.037 54.5373 181.349 57.3366" stroke="#03020B" stroke-opacity="0.84" stroke-width="2" stroke-linecap="round" stroke-linejoin="round"/>
<path d="M85.1879 42.8197C81.3151 46.4249 80.7708 47.0246 78.4879 48.9657C76.3223 46.269 76.0671 45.5385 73.6561 42.3348" stroke="#03020B" stroke-opacity="0.84" stroke-width="2" stroke-linecap="round" stroke-linejoin="round"/>
<path d="M44.7675 29.2596C48.6954 25.7277 49.249 25.1383 51.5614 23.2405C53.683 25.9794 53.9264 26.7149 56.2852 29.9657" stroke="#03020B" stroke-opacity="0.84" stroke-width="2" stroke-linecap="round" stroke-linejoin="round"/>
<path d="M132.457 38.6133C135.719 42.7227 136.262 43.2965 138.017 45.7263C135.55 48.2142 134.883 48.524 131.953 51.3019" stroke="#03020B" stroke-opacity="0.84" stroke-width="2" stroke-linecap="round" stroke-linejoin="round"/>
<path d="M149.175 53.435C145.826 49.4121 145.271 48.8526 143.464 46.4695C145.879 43.9207 146.539 43.5941 149.411 40.7437" stroke="#03020B" stroke-opacity="0.84" stroke-width="2" stroke-linecap="round" stroke-linejoin="round"/>
<path d="M214.166 67.8569C209.586 67.6557 206.049 67.2481 203.553 66.634C203.433 54.5931 203.165 47.3023 202.748 44.7616L201.658 44.966C201.077 45.0606 200.52 45.1682 199.986 45.2889C199.454 45.3856 198.882 45.5407 198.272 45.7541L198.29 44.5297C198.308 44.1221 198.768 43.77 199.67 43.4732C200.573 43.1526 201.652 42.9237 202.907 42.7867C204.187 42.6267 205.319 42.5683 206.302 42.6115C207.381 42.6589 208.607 42.9049 209.981 43.3497C211.379 43.7954 212.564 44.4241 213.538 45.2356C214.512 46.0231 214.977 46.9323 214.931 47.9634C214.88 49.1382 214.378 50.1612 213.427 51.0323C212.501 51.8805 211.31 52.4648 209.855 52.7852C211.949 53.2375 213.887 53.9713 215.668 54.9864C217.45 55.9776 218.863 57.1808 219.906 58.5959C220.95 59.987 221.437 61.4619 221.369 63.0204C221.29 64.8186 220.537 66.0948 219.111 66.849C217.684 67.6031 216.036 67.9391 214.166 67.8569ZM213.321 65.7658C215.095 65.8438 216.47 65.712 217.446 65.3705C218.423 65.005 218.94 64.1629 218.998 62.8442C219.059 61.4535 218.691 60.2722 217.893 59.3002C217.12 58.3053 216.181 57.5194 215.078 56.9424C213.999 56.3425 212.645 55.7065 211.017 55.0344C209.719 54.5209 208.753 54.0821 208.12 53.718C207.513 53.3309 207.218 52.9216 207.237 52.49C207.251 52.1783 207.417 51.9454 207.737 51.7913C208.056 51.6371 208.618 51.4216 209.423 51.1447C210.517 50.8324 211.373 50.4856 211.991 50.1044C212.633 49.7002 212.971 49.1144 213.005 48.3472C213.054 47.2203 212.409 46.3271 211.068 45.6676C209.729 44.9842 208.208 44.6051 206.506 44.5303C206.026 44.5092 205.449 44.5319 204.773 44.5983C205.22 48.6538 205.502 52.0655 205.621 54.8334C205.741 57.5773 205.769 60.7616 205.706 64.3863C206.027 64.7367 206.867 65.0259 208.226 65.2537C209.585 65.4816 211.284 65.6523 213.321 65.7658ZM243.076 69.1269C242.789 69.1143 242.588 69.0334 242.474 68.8843C242.385 68.7362 242.346 68.5303 242.357 68.2665C242.381 67.739 242.536 66.9291 242.825 65.8367C243.133 64.8413 243.301 64.0198 243.329 63.3725C243.411 61.5023 243.33 60.0693 243.086 59.0736L241.971 59.0247C240.988 58.9815 239.706 58.9011 238.126 58.7837L234.746 58.5992L229.891 58.3859L229.901 59.7917C229.853 60.8947 229.972 62.2812 230.259 63.9514C230.35 64.6281 230.427 65.3161 230.493 66.0157C230.583 66.6923 230.616 67.3063 230.592 67.8578L230.578 68.1815C230.328 68.4107 230.071 68.5196 229.807 68.508C229.183 68.4806 228.724 67.7277 228.429 66.2493C228.134 64.7469 228.033 62.9528 228.125 60.8668C228.161 60.0276 228.234 59.202 228.341 58.3899C227.815 58.3428 227.459 58.243 227.274 58.0908C227.089 57.9145 227.004 57.6585 227.019 57.3228C227.031 57.0591 227.11 56.8824 227.258 56.7928C227.431 56.7043 227.721 56.645 228.131 56.615L228.138 55.6423L228.318 53.9927C228.605 51.2906 228.954 49.0958 229.364 47.4082C229.775 45.7206 230.559 44.2776 231.717 43.0793C232.874 41.8809 234.556 41.3302 236.762 41.4271C239.28 41.5377 241.186 42.9788 242.482 45.7503C243.777 48.5218 244.604 51.585 244.961 54.94C245.318 58.2949 245.444 61.1712 245.339 63.5688C245.301 64.432 245.243 65.1862 245.167 65.8315C245.092 66.4528 244.962 67.2278 244.777 68.1566C244.195 68.8277 243.628 69.1511 243.076 69.1269ZM243.003 57.6647C242.743 53.2089 242.08 49.6965 241.016 47.1273C239.953 44.5341 238.246 43.1859 235.896 43.0827C234.146 43.0058 232.816 43.7642 231.905 45.3577C231.019 46.9284 230.452 48.6331 230.203 50.472C229.954 52.3108 229.779 54.3811 229.678 56.6829L243.003 57.6647Z" fill="#0E0921" fill-opacity="0.8"/>
</g>
<g clip-path="url(#clip1_423_210)">
<path d="M226.315 319.834C216.298 323.137 220.207 337.176 227.269 337.563C234.537 337.962 241.341 320.521 228.753 319.28" stroke="#000626" stroke-opacity="0.85" stroke-width="3" stroke-linecap="round"/>
<path d="M245.264 335.524C240.737 326.332 238.87 321.032 236.199 311.434C246.194 303.522 253.618 313.628 243.734 322.028C250.124 326.752 254.157 328.406 261.619 330.781" stroke="#000626" stroke-opacity="0.85" stroke-width="3" stroke-linecap="round" stroke-linejoin="round"/>
<path d="M262.948 325.352C256.146 314.314 246.149 294.303 249.806 299.112C253.463 303.921 271.081 313.761 271.081 313.761C271.081 313.761 272.633 298.025 271.767 287.454C277.893 301.662 280.897 309.731 284.312 324.598" stroke="#000626" stroke-opacity="0.85" stroke-width="3" stroke-linecap="round" stroke-linejoin="round"/>
<path d="M204.595 291.955C206.311 297.391 207.932 300.42 211.333 305.806" stroke="#000626" stroke-opacity="0.85" stroke-width="3" stroke-linecap="round"/>
<path d="M214.745 293.75C214.834 289.627 216.77 287.466 216.053 283.71" stroke="#000626" stroke-opacity="0.85" stroke-width="3" stroke-linecap="round"/>
<path d="M223.477 305.096L224.762 290.447C228.918 297.502 230.855 294.582 234.004 283.732L239.545 296.829M211.755 348.268L206.184 334.665M197.925 314.494C199.875 314.051 206.184 334.665 206.184 334.665M210.069 313.784L213.948 330.849M216.497 342.063L213.948 330.849M213.948 330.849L206.184 334.665" stroke="#000626" stroke-opacity="0.85" stroke-width="3" stroke-linecap="round"/>
<path d="M125.498 286.859C124.856 299.824 134.364 325.865 134.364 325.865L138.243 342.929C136.692 351.273 134.795 355.225 129.489 360.814C138.37 358.342 140.93 355.652 145.712 350.974C145.712 350.974 159.427 352.495 162.311 351.816C165.196 351.136 152.592 337.109 152.493 328.922C155.468 321.337 155.557 314.831 151.916 299.314C164.051 294.682 168.813 292.443 176.648 288.565L157.966 283.069L174.41 274.204C147.584 262.206 126.141 273.895 125.498 286.859Z" stroke="#000626" stroke-opacity="0.85" stroke-width="2" stroke-linejoin="round"/>
<path d="M145.4 308.999L141.899 325.177L134.829 309.864" stroke="#000626" stroke-opacity="0.85" stroke-width="2" stroke-linecap="round" stroke-linejoin="round"/>
<path d="M139.151 328.879C136.492 317.177 144.359 317.953 147.662 327.97L160.937 325.465L163.707 337.654L130.553 345.19L127.45 331.538L139.151 328.879Z" stroke="#000626" stroke-opacity="0.85" stroke-width="2" stroke-linejoin="round"/>
<path d="M132.922 285.684C133.35 294.674 151.494 290.693 149.499 281.916C147.505 273.14 132.922 274.404 132.59 284.222" stroke="#000626" stroke-opacity="0.85" stroke-width="2" stroke-linecap="round" stroke-linejoin="round"/>
<path d="M123.902 270.814C137.352 271.025 144.329 269.21 155.971 263.012" stroke="#000626" stroke-opacity="0.85" stroke-width="2" stroke-linecap="round" stroke-linejoin="round"/>
<path d="M135.56 270.216L132.235 255.589L139.97 262.547L141.986 253.372L146.663 267.179" stroke="#000626" stroke-opacity="0.85" stroke-width="2" stroke-linecap="round" stroke-linejoin="round"/>
<path d="M140.613 283.424L141.699 283.69" stroke="#000626" stroke-opacity="0.85" stroke-width="3" stroke-linecap="round"/>
<path d="M183.23 281.428L193.137 277.638" stroke="#000626" stroke-opacity="0.85" stroke-width="3" stroke-linecap="round"/>
<path d="M202.25 287.873C201.681 286.386 200.865 280.359 199.258 274.709M195.884 262.657C196.737 265.75 198.01 270.321 199.258 274.709M199.258 274.709L205.968 273.183" stroke="#000626" stroke-opacity="0.85" stroke-width="3" stroke-linecap="round"/>
<path d="M208.341 281.361C205.526 273.39 204.431 268.811 203.575 260.396" stroke="#000626" stroke-opacity="0.85" stroke-width="3" stroke-linecap="round"/>
<path d="M212.661 266.535C207.462 267.714 208.926 278.666 214.124 277.483C219.322 276.299 219.841 268.415 215.099 265.98" stroke="#000626" stroke-opacity="0.85" stroke-width="3" stroke-linecap="round"/>
<path d="M223.233 276.95L218.933 262.545C228.42 275.689 230.391 276.862 225.515 255.409" stroke="#000626" stroke-opacity="0.85" stroke-width="3" stroke-linecap="round" stroke-linejoin="round"/>
<path d="M243.666 274.357L234.89 276.352L230.9 258.8" stroke="#000626" stroke-opacity="0.85" stroke-width="3" stroke-linecap="round"/>
<path d="M233.228 269.038L242.492 266.933" stroke="#000626" stroke-opacity="0.85" stroke-width="3" stroke-linecap="round"/>
<path d="M230.524 259.398L241.029 255.985" stroke="#000626" stroke-opacity="0.85" stroke-width="3" stroke-linecap="round"/>
<path d="M244.552 255.696L251.423 263.364" stroke="#000626" stroke-opacity="0.85" stroke-width="3" stroke-linecap="round"/>
<path d="M254.237 250.931C251.552 258.367 251.151 263.248 252.664 273.337" stroke="#000626" stroke-opacity="0.85" stroke-width="3" stroke-linecap="round"/>
</g>
<defs>
<clipPath id="clip0_423_210">
<rect width="246" height="53" fill="white" transform="translate(19.2998) rotate(6.82647)"/>
</clipPath>
<clipPath id="clip1_423_210">
<rect width="179" height="147" fill="white" transform="translate(104 248.675) rotate(-12.8058)"/>
</clipPath>
</defs>
</svg>
