<svg width="380" height="580" viewBox="0 0 380 580" fill="none" xmlns="http://www.w3.org/2000/svg">
<g clip-path="url(#clip0_474_2)">
<path d="M0 534.5H382" stroke="#31289C" stroke-opacity="0.6"/>
<path d="M0 510.5H382" stroke="#31289C" stroke-opacity="0.6"/>
<path d="M0 486.5H382" stroke="#31289C" stroke-opacity="0.6"/>
<path d="M0 462.5H382" stroke="#31289C" stroke-opacity="0.6"/>
<path d="M0 438.5H382" stroke="#31289C" stroke-opacity="0.6"/>
<path d="M0 414.5H382" stroke="#31289C" stroke-opacity="0.6"/>
<path d="M0 390.5H382" stroke="#31289C" stroke-opacity="0.6"/>
<path d="M0 366.5H382" stroke="#31289C" stroke-opacity="0.6"/>
<path d="M0 342.5H382" stroke="#31289C" stroke-opacity="0.6"/>
<path d="M0 318.5H382" stroke="#31289C" stroke-opacity="0.6"/>
<path d="M0 294.5H382" stroke="#31289C" stroke-opacity="0.6"/>
<path d="M0 270.5H382" stroke="#31289C" stroke-opacity="0.6"/>
<path d="M0 246.5H382" stroke="#31289C" stroke-opacity="0.6"/>
<path d="M0 222.5H382" stroke="#31289C" stroke-opacity="0.6"/>
<path d="M0 198.5H382" stroke="#31289C" stroke-opacity="0.6"/>
<path d="M0 174.5H382" stroke="#31289C" stroke-opacity="0.6"/>
<path d="M0 150.5H382" stroke="#31289C" stroke-opacity="0.6"/>
<path d="M0 126.5H382" stroke="#31289C" stroke-opacity="0.6"/>
<path d="M0 102.5H382" stroke="#31289C" stroke-opacity="0.6"/>
<path d="M0 78.5H382" stroke="#31289C" stroke-opacity="0.6"/>
<path d="M0 54.5H382" stroke="#31289C" stroke-opacity="0.6"/>
<path d="M55.5 575V-8" stroke="#DF000D" stroke-opacity="0.6"/>
</g>
<defs>
<clipPath id="clip0_474_2">
<rect width="380" height="580" fill="white"/>
</clipPath>
</defs>
</svg>
